# xmcd
#
# Track frame offsets:
#	150
#	16317
#	30469
#	44282
#	59434
#	73851
#	86978
#	102753
#	116425
#	135621
#	152444
#	167974
#	182547
#	198733
#
# Disc length: 2830 seconds
#
# Revision: 1
# Processed by: cddbd v1.5.2PL0 Copyright (c) Steve Scherf et al.
# Submitted via: audiograbber 1.83.01
#
DISCID=bc0b0c0e
DTITLE=Nockalm Quintett - Glücksmomente
DYEAR=2006
DGENRE=Schlager
TTITLE0=Spiel nie mit dem Feuer
TTITLE1=Denk an Ibiza
TTITLE2=Bitte, gib mir eine Chance
TTITLE3=Vom Winde verweht
TTITLE4=Sternenhimmelgefühl
TTITLE5=Mein schönster Traum
TTITLE6=Ser Sommerwind will keine Tränen seh'n
TTITLE7=Verliebt in alle Ewigkeit
TTITLE8=Wann kommst du wieder
TTITLE9=Das Mädchen Atlantis
TTITLE10=Eine neue Liebe ist wie ein neues Leben
TTITLE11=Schenke mir dein erstes Mal
TTITLE12=Wo warst du?
TTITLE13=Wir sollten diese Nacht nicht vergessen
EXTD=Koch Universal
EXTT0=
EXTT1=
EXTT2=
EXTT3=
EXTT4=
EXTT5=
EXTT6=
EXTT7=
EXTT8=
EXTT9=
EXTT10=
EXTT11=
EXTT12=
EXTT13=
PLAYORDER=
